<svg width="1080" height="711" viewBox="0 0 1080 711" fill="none" xmlns="http://www.w3.org/2000/svg">
<path d="M695.48 323C695.478 322.89 695.5 322.78 695.543 322.679C695.587 322.577 695.651 322.486 695.732 322.412C695.814 322.337 695.91 322.28 696.015 322.246C696.119 322.211 696.23 322.199 696.34 322.21C696.86 322.21 697.24 322.48 697.24 323C697.261 336.241 702.525 348.934 711.88 358.304C721.235 367.674 733.92 372.958 747.16 373C747.383 372.986 747.603 373.058 747.774 373.201C747.945 373.345 748.055 373.548 748.08 373.77C748.081 373.891 748.059 374.012 748.013 374.124C747.967 374.236 747.899 374.338 747.814 374.424C747.728 374.509 747.626 374.577 747.514 374.623C747.402 374.669 747.281 374.692 747.16 374.69C733.454 374.682 720.313 369.233 710.622 359.541C700.932 349.849 695.485 336.706 695.48 323Z" fill="#FEFEFE"/>
<g style="mix-blend-mode:multiply">
<g style="mix-blend-mode:multiply">
<path d="M746.32 272.26C746.314 272.144 746.332 272.029 746.371 271.92C746.411 271.811 746.471 271.711 746.549 271.626C746.627 271.54 746.721 271.471 746.826 271.422C746.931 271.373 747.044 271.345 747.16 271.34C760.863 271.358 774.002 276.804 783.7 286.486C793.399 296.167 798.867 309.296 798.91 323C798.91 323.233 798.817 323.457 798.652 323.622C798.487 323.787 798.263 323.88 798.03 323.88C797.796 323.88 797.573 323.787 797.408 323.622C797.243 323.457 797.15 323.233 797.15 323C797.113 309.763 791.829 297.082 782.456 287.735C773.083 278.388 760.386 273.14 747.15 273.14C746.934 273.104 746.737 272.998 746.587 272.84C746.437 272.681 746.343 272.477 746.32 272.26Z" fill="#FEFEFE"/>
</g>
</g>
<g style="mix-blend-mode:multiply">
<g style="mix-blend-mode:multiply">
<path d="M857.9 272.261C857.885 272.472 857.789 272.669 857.633 272.813C857.477 272.956 857.272 273.034 857.06 273.031C843.806 273.052 831.1 278.326 821.728 287.699C812.356 297.071 807.081 309.776 807.06 323.031C807.06 323.14 807.038 323.249 806.994 323.35C806.95 323.451 806.885 323.541 806.805 323.615C806.724 323.69 806.628 323.746 806.524 323.782C806.42 323.817 806.31 323.83 806.2 323.821C805.68 323.821 805.29 323.551 805.29 323.031C805.303 309.316 810.762 296.168 820.466 286.477C830.17 276.786 843.326 271.345 857.04 271.351C857.156 271.353 857.271 271.379 857.378 271.426C857.484 271.473 857.58 271.541 857.66 271.626C857.74 271.711 857.803 271.81 857.844 271.919C857.885 272.028 857.904 272.144 857.9 272.261Z" fill="#FEFEFE"/>
</g>
</g>
<g style="mix-blend-mode:multiply">
<g style="mix-blend-mode:multiply">
<path d="M908.75 323C908.718 336.699 903.262 349.829 893.575 359.515C883.889 369.202 870.759 374.658 857.06 374.69C856.939 374.691 856.819 374.669 856.707 374.623C856.594 374.577 856.492 374.509 856.407 374.424C856.321 374.338 856.253 374.236 856.207 374.124C856.162 374.012 856.139 373.891 856.14 373.77C856.161 373.534 856.265 373.313 856.433 373.146C856.602 372.98 856.824 372.878 857.06 372.86C870.286 372.844 882.968 367.589 892.327 358.244C901.687 348.899 906.963 336.226 907 323C906.997 322.88 907.019 322.76 907.064 322.649C907.109 322.537 907.176 322.436 907.261 322.351C907.346 322.265 907.447 322.199 907.559 322.154C907.67 322.109 907.79 322.087 907.91 322.09C908.142 322.1 908.36 322.202 908.517 322.372C908.675 322.543 908.758 322.768 908.75 323Z" fill="#FEFEFE"/>
</g>
</g>
<g style="mix-blend-mode:multiply">
<g style="mix-blend-mode:multiply">
<path d="M1018.23 323.001C1018.23 323.111 1018.21 323.221 1018.17 323.322C1018.12 323.423 1018.06 323.514 1017.98 323.589C1017.9 323.664 1017.8 323.72 1017.7 323.755C1017.59 323.79 1017.48 323.802 1017.37 323.791C1016.85 323.791 1016.46 323.521 1016.46 323.001C1016.44 309.759 1011.18 297.064 1001.82 287.694C992.468 278.323 979.781 273.04 966.54 273.001C966.317 273.015 966.097 272.943 965.926 272.8C965.755 272.656 965.645 272.453 965.62 272.231C965.619 272.109 965.642 271.989 965.687 271.877C965.733 271.765 965.801 271.663 965.887 271.577C965.972 271.491 966.074 271.424 966.187 271.378C966.299 271.332 966.419 271.309 966.54 271.311C980.247 271.319 993.39 276.767 1003.08 286.459C1012.77 296.151 1018.22 309.294 1018.23 323.001Z" fill="#FEFEFE"/>
</g>
</g>
<path d="M967.38 373.79C967.386 373.905 967.368 374.021 967.329 374.13C967.289 374.239 967.229 374.339 967.151 374.424C967.073 374.51 966.979 374.579 966.874 374.628C966.769 374.677 966.656 374.705 966.54 374.71C952.828 374.691 939.682 369.239 929.982 359.546C920.282 349.854 914.819 336.712 914.79 323C914.777 322.876 914.79 322.75 914.828 322.631C914.867 322.513 914.93 322.403 915.013 322.311C915.097 322.218 915.199 322.144 915.313 322.093C915.427 322.042 915.55 322.016 915.675 322.016C915.8 322.016 915.923 322.042 916.037 322.093C916.151 322.144 916.254 322.218 916.337 322.311C916.42 322.403 916.483 322.513 916.522 322.631C916.56 322.75 916.573 322.876 916.56 323C916.597 336.236 921.881 348.918 931.254 358.265C940.627 367.611 953.324 372.86 966.56 372.86C966.782 372.9 966.983 373.014 967.132 373.182C967.28 373.351 967.368 373.565 967.38 373.79Z" fill="#FEFEFE"/>
<path d="M765 301.44L761.12 305.32C757.71 302.07 753.83 300.41 747.97 300.41C740.36 300.41 735.97 304.61 735.97 310.95C735.97 313.72 736.76 316.02 738.51 317.52C740.661 319.137 743.206 320.149 745.88 320.45L752.45 321.45C757.68 322.25 760.14 323.2 762.67 325.45C764.229 326.838 765.463 328.552 766.285 330.47C767.108 332.388 767.499 334.464 767.43 336.55C767.43 346.45 759.74 352.55 747.94 352.55C739.54 352.55 733.94 350.41 728.68 345.1L732.68 341.1C737.36 345.78 741.68 347.2 748.05 347.2C756.37 347.2 761.44 343.4 761.44 336.75C761.44 333.75 760.57 331.36 758.67 329.69C756.93 328.11 755.34 327.55 751.3 326.92L744.8 326C740.36 325.29 737.03 323.94 734.5 321.72C731.64 319.19 730.14 315.72 730.14 311.1C730.14 301.52 737.03 295.26 748.2 295.26C755.41 295.26 760.17 297.16 765 301.44Z" fill="#FEFEFE"/>
<path d="M862.07 295.73C872.3 295.73 879.51 302.23 879.51 312.29C879.51 322.35 872.3 328.93 862.07 328.93H847.07V352.15H841.07V295.73H862.07ZM847.07 301.12V323.54H861.57C868.57 323.54 873.45 319.74 873.45 312.29C873.45 304.84 868.62 301.12 861.57 301.12H847.07Z" fill="#FEFEFE"/>
<path d="M970.39 352.15H964.39V295.73H970.39V352.15Z" fill="#FEFEFE"/>
<path d="M33 14.9102H120.58V91.5402H33V14.9102ZM35.74 118.91H117.84V392.6H35.74V118.91Z" fill="#FEFEFE"/>
<path d="M652.07 271.08C652.07 347.72 615.94 398.08 531.64 398.08C448.44 398.08 411.22 347.73 411.22 271.08V239.33C411.22 155.59 455.01 113.44 531.64 113.44C609.37 113.44 652.07 155.59 652.07 239.33V271.08ZM570 267.25V243.17C570 202.66 561.24 182.41 531.68 182.41C502.12 182.41 493.37 202.66 493.37 243.17V267.25C493.37 303.38 497.75 329.1 531.68 329.1C565.61 329.1 570 303.38 570 267.25Z" fill="#FEFEFE"/>
<path d="M495.42 421.17L445.06 578.81L392.06 392.6V220.72C392.06 137.53 344.98 113.44 291.34 113.44C262.34 113.44 242.07 128.76 233.34 139.71V118.91H153.42V392.6H235.52V236.05C235.52 201.05 246.47 183.5 274.94 183.5C301.21 183.5 309.94 199.92 309.94 236.6V392.6L407.8 694.86H484.44L585.73 421.17H495.42Z" fill="#FEFEFE"/>
<path d="M681.52 527.91H730.24V519.7C730.24 492.87 725.31 482.48 687 482.48C663.46 482.48 652.51 486.85 642.66 501.08L585.18 461.13C606.53 427.19 638.28 415.69 696.3 415.69C767.46 415.69 810.15 435.95 810.15 520.24V694.86H730.24V672.42C720.93 687.19 706.15 700.33 676.05 700.33C622.4 700.33 580.81 670.77 580.81 613.33C580.81 555.89 624.6 527.91 681.52 527.91ZM730.24 585.91H693C672.2 585.91 660.7 593.02 660.7 611.09C660.7 626.96 673.29 635.72 694.09 635.72C721.46 635.72 730.22 619.3 730.22 594.12L730.24 585.91Z" fill="#FEFEFE"/>
<path d="M996.26 505.47C991.33 497.26 983.67 485.76 967.79 485.76C944.25 485.76 930.57 502.18 930.57 538.86V694.86H848.47V421.17H928.38V442C936.59 431.6 954.66 415.72 985.85 415.72C1017.04 415.72 1041.69 431.05 1057.56 461.72L996.26 505.47Z" fill="#FEFEFE"/>
<path d="M191.32 40.2603C189.5 38.1503 187.58 36.9003 183.16 36.9003C181.16 36.9003 178.65 37.2803 178.65 39.4003C178.65 41.0303 180.18 41.8003 184.6 42.6603C197.76 45.1603 202.66 50.4403 202.66 59.2703C202.66 68.8803 195.83 74.5403 183.45 74.5403C173.65 74.5403 167.31 72.4303 162.99 66.5403L174.13 58.4703C175.77 60.6803 177.68 62.2103 183.13 62.2103C186.3 62.2103 188.22 61.3503 188.22 59.6203C188.22 57.8903 186.58 57.1303 182.07 56.1603C171.22 53.7603 164.21 49.3403 164.21 39.9303C164.21 30.3303 171.12 24.5703 183.42 24.5703C191.29 24.5703 198.21 26.4003 201.95 32.5703L191.32 40.2603Z" fill="#FEFEFE"/>
<path d="M280.56 73.58H266.44V69.84C264.53 72.91 262.32 74.54 256.36 74.54C246.95 74.54 238.69 69.94 238.69 55.54V25.54H253.1V52.84C253.1 59.37 254.64 62.25 259.44 62.25C264.24 62.25 266.16 59.56 266.16 52.94V25.57H280.56V73.58Z" fill="#FEFEFE"/>
<path d="M360.3 52.8406C360.3 65.3206 353.96 74.5406 341.86 74.5406C337.55 74.5406 334.57 73.8706 332.45 72.6306V91.8306H318.05V25.5706H332.45V28.0006C334.66 25.8806 337.74 24.6406 341.96 24.6406C352.81 24.6406 360.3 32.4206 360.3 46.1506V52.8406ZM345.9 51.5906V47.3706C345.9 40.2606 344.36 36.7106 339.18 36.7106C334 36.7106 332.45 40.2606 332.45 47.3706V53.0006C332.45 58.5706 333.6 62.4106 339.18 62.4106C345.13 62.4406 345.9 57.9306 345.9 51.5906Z" fill="#FEFEFE"/>
<path d="M434.47 66.2904C431.11 72.1504 425.35 74.5404 416.61 74.5404C401.44 74.5404 394.91 64.7504 394.91 52.8404V46.1203C394.91 31.2303 402.59 24.6104 415.07 24.6104C429 24.6104 435.24 32.6104 435.24 47.6104V53.2704H409.31C409.5 58.7504 410.85 62.4904 416.7 62.4904C421.22 62.4904 422.18 61.1503 423.9 58.9403L434.47 66.2904ZM409.41 43.6203H420.83C420.54 38.3403 418.53 36.7104 415.17 36.7104C411.42 36.7104 409.79 39.3004 409.41 43.6203Z" fill="#FEFEFE"/>
<path d="M497.69 40.3606C496.83 38.9206 495.48 36.9006 492.69 36.9006C488.57 36.9006 486.16 39.7806 486.16 46.2206V73.5806H471.76V25.5806H485.76V29.2306C486.97 27.7365 488.51 26.5428 490.259 25.7431C492.008 24.9433 493.918 24.5591 495.84 24.6206C501.32 24.6206 505.64 27.3106 508.42 32.6906L497.69 40.3606Z" fill="#FEFEFE"/>
<path d="M555.33 44.2898H563.88V42.8598C563.88 38.1498 563.02 36.3298 556.3 36.3298C552.16 36.3298 550.3 37.0898 548.52 39.5898L538.43 32.5898C542.18 26.6398 547.75 24.5898 557.93 24.5898C570.41 24.5898 577.93 28.1398 577.93 42.9298V73.5798H563.93V69.6498C562.3 72.2398 559.71 74.5398 554.42 74.5398C545.01 74.5398 537.72 69.3598 537.72 59.2698C537.72 49.1798 545.35 44.2898 555.33 44.2898ZM563.88 54.4798H557.35C553.7 54.4798 551.68 55.7198 551.68 58.8898C551.68 61.6798 553.89 63.2198 557.54 63.2198C562.35 63.2198 563.88 60.3298 563.88 55.9098V54.4798Z" fill="#FEFEFE"/>
<path d="M641.31 40.3601C640.45 38.9201 639.1 36.9001 636.31 36.9001C632.18 36.9001 629.78 39.7801 629.78 46.2201V73.5801H615.38V25.5801H629.38V29.2301C630.589 27.7342 632.128 26.5393 633.878 25.7394C635.627 24.9394 637.538 24.5563 639.46 24.6201C644.93 24.6201 649.25 27.3101 652.04 32.6901L641.31 40.3601Z" fill="#FEFEFE"/>
<path d="M65.6401 432.78C65.6401 442.28 61.1401 448.11 52.1301 448.11C46.8601 448.11 43.6101 446.65 41.6701 443.59V460.86H37.8501V413H41.6701V417.37C43.6101 414.25 46.8601 412.59 52.1301 412.59C60.7201 412.59 65.6401 417.92 65.6401 427.76V432.78ZM61.8301 432.78V427.78C61.8301 420.23 58.4401 416.14 51.8301 416.14C44.4901 416.14 41.6501 420.58 41.6501 427.37V433.37C41.7101 439.89 44.2101 444.52 51.8301 444.52C58.5101 444.56 61.8301 440.06 61.8301 432.78Z" fill="#FEFEFE"/>
<path d="M83.6501 428H93.7701V423.71C93.7701 417.82 91.4101 416.22 85.0401 416.22C80.8801 416.22 78.1801 416.5 75.9601 420.17L73.0501 418.17C75.4701 414.08 78.9401 412.63 85.1101 412.63C93.5601 412.63 97.5801 415.26 97.5801 423.72V447.72H93.7701V443.43C91.8301 447.1 88.3701 448.15 83.9301 448.15C76.2401 448.15 71.8701 444.47 71.8701 437.82C71.8701 431.17 76.5101 428 83.6501 428ZM93.7701 431.4H83.6501C77.6501 431.4 75.6501 434.17 75.6501 437.84C75.6501 442.69 79.0501 444.5 83.9001 444.5C89.5101 444.5 93.7401 442.56 93.7401 434.8L93.7701 431.4Z" fill="#FEFEFE"/>
<path d="M111.09 426.82V447.68H107.28V413H111.09V417.72C112.54 414.53 115.45 412.59 119.82 412.59C121.719 412.501 123.61 412.892 125.318 413.727C127.026 414.563 128.495 415.816 129.59 417.37L126.4 419.73C125.637 418.603 124.602 417.687 123.39 417.068C122.179 416.449 120.83 416.147 119.47 416.19C114.07 416.22 111.09 420.51 111.09 426.82Z" fill="#FEFEFE"/>
<path d="M143.1 428H153.22V423.71C153.22 417.82 150.86 416.22 144.49 416.22C140.33 416.22 137.63 416.5 135.41 420.17L132.5 418.17C134.92 414.08 138.39 412.63 144.55 412.63C153.01 412.63 157.03 415.26 157.03 423.72V447.72H153.22V443.43C151.28 447.1 147.81 448.15 143.38 448.15C135.68 448.15 131.32 444.47 131.32 437.82C131.32 431.17 136 428 143.1 428ZM153.22 431.4H143.1C137.1 431.4 135.1 434.17 135.1 437.84C135.1 442.69 138.5 444.5 143.35 444.5C148.96 444.5 153.19 442.56 153.19 434.8L153.22 431.4Z" fill="#FEFEFE"/>
</svg>
